<svg
 width="386"
 height="386"
 viewBox="0 0 386 386"
 fill="none"
 xmlns="http://www.w3.org/2000/svg"
>
 <mask
  id="mask0"
  mask-type="alpha"
  maskUnits="userSpaceOnUse"
  x="0"
  y="0"
  width="386"
  height="386"
 >
  <path
   fill-rule="evenodd"
   clip-rule="evenodd"
   d="M193 386C299.591 386 386 299.591 386 193C386 86.409 299.591 0 193 0C86.409 0 0 86.409 0 193C0 299.591 86.409 386 193 386ZM193 273C237.183 273 273 237.183 273 193C273 148.817 237.183 113 193 113C148.817 113 113 148.817 113 193C113 237.183 148.817 273 193 273Z"
   fill="#30386C"
  />
 </mask>
 <g mask="url(#mask0)">
  <rect x="-45" y="-31" width="483" height="473" fill="#001937" />
  <path
   d="M377 363L195.5 196H188L-54 207.5L-35 264L128 423L377 363Z"
   fill="#66AEFF"
   stroke="black"
  />
  <path d="M-55.5 209L194.5 196L-40 108.5L-55.5 209Z" fill="#0130A6" />
  <path d="M-44 111L197 196L-13.5 80L-44 111Z" fill="#086AD9" />
  <path d="M-28.5 71.5L197 199V-50L-28.5 71.5Z" fill="#2DBCC4" />
 </g>
 <path
  d="M310.434 157.918L312.194 157.057C311.716 155.919 312.254 155.173 313.122 154.748C314.065 154.287 314.96 154.395 315.28 155.048C315.624 155.753 315.216 156.576 314.254 157.093L313.493 157.513L314.207 158.971L315.093 158.584C316.124 158.111 317.087 158.232 317.468 159.012C317.844 159.779 317.423 160.639 316.291 161.193C315.424 161.618 314.535 161.522 313.849 160.565L312.088 161.426C313.012 163.25 314.804 163.729 316.999 162.671C319.08 161.668 320.322 159.907 319.448 158.121C318.845 156.889 317.652 156.615 316.51 156.831C317.483 155.856 317.629 154.912 317.192 154.019C316.38 152.359 314.502 152.312 312.464 153.309C310.528 154.256 309.48 155.969 310.434 157.918ZM317.11 151.191L317.849 152.7L322.715 150.319C321.937 154.238 322.612 157.944 323.207 159.477L325.181 158.511C324.241 156.399 324.067 151.871 324.627 149.384L323.888 147.875L317.11 151.191ZM327.036 146.163C325.728 146.803 325.282 148.44 325.996 149.898C326.703 151.345 328.238 151.965 329.559 151.319C330.866 150.679 331.293 149.099 330.586 147.652C329.872 146.194 328.318 145.535 327.036 146.163ZM333.895 142.853L332.839 143.37L331.219 155.603L332.306 155.087L333.895 142.853ZM329.091 150.395C328.437 150.715 327.846 150.24 327.354 149.234C326.849 148.203 326.837 147.414 327.478 147.1C328.107 146.792 328.717 147.273 329.227 148.317C329.726 149.336 329.745 150.075 329.091 150.395ZM335.045 147.434C333.75 148.068 333.31 149.717 334.018 151.163C334.726 152.609 336.254 153.249 337.574 152.602C338.895 151.956 339.315 150.363 338.608 148.917C337.9 147.471 336.341 146.8 335.045 147.434ZM337.1 151.665C336.472 151.973 335.862 151.492 335.382 150.511C334.884 149.493 334.859 148.678 335.488 148.371C336.117 148.063 336.751 148.563 337.256 149.594C337.736 150.575 337.742 151.352 337.1 151.665Z"
  fill="white"
 />
 <path
  d="M107.815 81.0208L109.183 82.5769L116.785 75.8936L115.889 74.8737C115.172 75.3732 114.33 75.2 113.184 73.8963L112.322 74.6543L113.514 76.0106L107.815 81.0208ZM118.06 77.3433L116.798 78.4525L120.375 82.5216C116.389 82.8009 112.991 84.4275 111.669 85.4039L113.12 87.0547C114.91 85.5925 119.234 84.2337 121.78 84.1197L123.042 83.0105L118.06 77.3433ZM125.521 85.5969C124.56 84.5034 122.863 84.5034 121.644 85.5757C120.435 86.6387 120.24 88.2828 121.21 89.3868C122.172 90.4803 123.809 90.4765 125.018 89.4134C126.237 88.3412 126.464 86.6693 125.521 85.5969ZM130.518 91.3444L129.742 90.4612L117.513 92.1152L118.298 93.0286L130.518 91.3444ZM121.979 88.6923C121.498 88.1455 121.801 87.4508 122.642 86.7112C123.504 85.9533 124.262 85.7342 124.734 86.2704C125.196 86.7961 124.892 87.5106 124.019 88.2779C123.168 89.0266 122.46 89.239 121.979 88.6923ZM126.401 93.6589C125.449 92.5759 123.742 92.5852 122.533 93.6482C121.324 94.7113 121.109 96.3541 122.08 97.4581C123.051 98.5621 124.698 98.549 125.907 97.4859C127.116 96.4229 127.353 94.7418 126.401 93.6589ZM122.859 96.7543C122.397 96.2286 122.701 95.514 123.521 94.793C124.373 94.0443 125.152 93.8067 125.614 94.3324C126.076 94.8581 125.761 95.6016 124.898 96.3596C124.078 97.0807 123.331 97.2905 122.859 96.7543Z"
  fill="white"
 />
 <path
  d="M141.762 330.414L142.636 328.659C141.564 328.047 141.537 327.127 141.968 326.262C142.436 325.322 143.211 324.864 143.863 325.188C144.565 325.538 144.742 326.439 144.293 327.435L143.943 328.231L145.397 328.955L145.865 328.109C146.396 327.106 147.234 326.616 148.011 327.003C148.776 327.384 148.965 328.322 148.403 329.45C147.973 330.315 147.21 330.78 146.082 330.437L145.209 332.192C147.051 333.078 148.765 332.367 149.864 330.193C150.906 328.131 150.82 325.978 149.041 325.092C147.813 324.48 146.699 324.989 145.924 325.855C146.103 324.489 145.645 323.651 144.755 323.208C143.101 322.385 141.581 323.489 140.57 325.519C139.61 327.45 139.82 329.446 141.762 330.414ZM142.97 321.013L144.474 321.762L146.889 316.912C148.654 320.496 151.445 323.027 152.849 323.882L153.828 321.915C151.798 320.81 148.906 317.321 147.837 315.007L146.333 314.258L142.97 321.013ZM147.791 310.985C147.142 312.289 147.783 313.859 149.237 314.583C150.678 315.3 152.274 314.859 152.929 313.543C153.578 312.24 152.956 310.726 151.514 310.008C150.06 309.285 148.427 309.707 147.791 310.985ZM151.222 304.186L150.698 305.239L156.853 315.935L157.402 314.863L151.222 304.186ZM151.995 313.094C151.671 313.746 150.913 313.728 149.911 313.229C148.883 312.718 148.394 312.099 148.712 311.459C149.024 310.833 149.8 310.844 150.84 311.362C151.856 311.867 152.32 312.442 151.995 313.094ZM154.922 307.122C154.279 308.413 154.933 309.99 156.374 310.707C157.815 311.425 159.417 311.003 160.072 309.687C160.728 308.371 160.093 306.85 158.651 306.133C157.21 305.415 155.564 305.831 154.922 307.122ZM159.126 309.231C158.814 309.858 158.038 309.847 157.06 309.36C156.045 308.855 155.531 308.223 155.843 307.597C156.155 306.97 156.962 306.981 157.99 307.493C158.968 307.979 159.445 308.592 159.126 309.231Z"
  fill="white"
 />
 <path
  d="M43.8721 171.434C41.2126 171.381 39.5897 173.421 39.5235 176.753C39.4632 179.79 41.0064 181.753 43.5819 181.804C45.8635 181.85 47.4596 180.453 47.4991 178.466C47.5363 176.59 46.1748 175.345 44.1172 175.304C43.1794 175.285 42.2758 175.659 41.8008 176.308C41.6438 174.344 42.4401 173.03 43.8958 173.059C44.7636 173.076 45.3426 173.536 45.5776 174.395L47.4392 174.432C47.378 172.582 45.7757 171.472 43.8721 171.434ZM43.625 176.82C44.6188 176.84 45.3638 177.401 45.3415 178.521C45.3207 179.57 44.5084 180.282 43.5566 180.264C42.5068 180.243 41.8088 179.431 41.8358 178.073C41.8483 177.443 42.7572 176.803 43.625 176.82ZM50.9816 179.655L48.742 179.61L48.6978 181.836L50.9373 181.881L50.9816 179.655ZM53.5395 171.808L52.9615 176.936L54.4315 177.651C54.5701 177.724 54.5841 177.724 54.7112 177.671C55.4079 177.138 55.8863 177.022 56.5022 177.034C57.65 177.057 58.4331 177.815 58.4136 178.795C58.393 179.83 57.5812 180.514 56.3635 180.49C55.1597 180.466 54.4601 179.738 53.9331 178.775L52.3188 179.682C52.9211 181.08 54.5393 182.092 56.5409 182.132C58.9484 182.18 60.5143 180.895 60.5566 178.767C60.5988 176.64 59.0825 175.433 57.0669 175.393C56.2551 175.377 55.6216 175.546 54.8714 175.952L55.1158 173.52L59.9308 173.616L60.0342 171.937L53.5395 171.808ZM64.5303 171.873C63.0745 171.844 61.9294 173.095 61.8972 174.719C61.8652 176.329 62.9465 177.582 64.4162 177.612C65.8719 177.641 66.9742 176.43 67.0062 174.82C67.0384 173.197 65.958 171.901 64.5303 171.873ZM72.1439 172.066L70.9681 172.043L63.9333 182.181L65.1368 182.219L72.1439 172.066ZM64.4228 176.575C63.6949 176.561 63.3866 175.869 63.4089 174.749C63.4317 173.601 63.7818 172.894 64.4957 172.908C65.1955 172.922 65.5175 173.629 65.4945 174.79C65.4719 175.924 65.1506 176.59 64.4228 176.575ZM71.0723 176.666C69.6306 176.637 68.4852 177.902 68.4532 179.512C68.4212 181.122 69.4882 182.389 70.9579 182.419C72.4276 182.448 73.5302 181.223 73.5622 179.614C73.5942 178.004 72.514 176.694 71.0723 176.666ZM70.9648 181.368C70.2649 181.355 69.9429 180.648 69.9646 179.556C69.9872 178.422 70.3378 177.687 71.0377 177.701C71.7376 177.715 72.073 178.45 72.0502 179.598C72.0285 180.689 71.6787 181.383 70.9648 181.368Z"
  fill="white"
 />
 <path
  d="M48.8275 138.397L55.8006 141.015L56.4056 139.402L51.5691 137.587L51.6035 137.495C52.3562 135.49 57.0829 137.638 58.3472 134.269C58.9867 132.565 58.0958 130.915 55.9724 130.118C53.5083 129.193 51.7531 130.164 51.048 131.963L52.883 132.652C53.4404 131.605 54.3679 131.325 55.3247 131.684C56.2422 132.029 56.6042 132.778 56.3237 133.525C55.5465 135.596 50.628 133.6 49.3637 136.969L48.8275 138.397ZM59.9729 140.203L57.8758 139.416L57.0936 141.5L59.1907 142.287L59.9729 140.203ZM64.9958 133.654L62.7447 138.297L63.893 139.461C63.9995 139.576 64.0126 139.581 64.1502 139.573C64.9843 139.302 65.4743 139.352 66.051 139.568C67.1258 139.972 67.6122 140.947 67.2678 141.864C66.9038 142.834 65.9107 143.209 64.7703 142.781C63.6431 142.358 63.2255 141.439 63.0489 140.356L61.2251 140.673C61.3279 142.192 62.517 143.685 64.3914 144.388C66.6458 145.235 68.55 144.544 69.2978 142.551C70.0455 140.559 69.017 138.917 67.1295 138.209C66.3693 137.923 65.7155 137.872 64.8733 138.005L65.9128 135.793L70.4217 137.485L71.0775 135.937L64.9958 133.654ZM75.3389 137.372C73.9758 136.86 72.4795 137.659 71.9089 139.18C71.3432 140.687 71.9457 142.229 73.322 142.746C74.6851 143.257 76.1273 142.483 76.693 140.975C77.2637 139.455 76.6759 137.874 75.3389 137.372ZM82.4545 140.087L81.3535 139.674L71.3463 146.894L72.4686 147.33L82.4545 140.087ZM73.6729 141.771C72.9913 141.515 72.9309 140.76 73.3245 139.711C73.7279 138.636 74.2933 138.086 74.9618 138.337C75.6172 138.583 75.6858 139.356 75.2774 140.444C74.879 141.506 74.3545 142.027 73.6729 141.771ZM79.9136 144.068C78.5636 143.562 77.0624 144.374 76.4966 145.881C75.9309 147.389 76.5154 148.939 77.8917 149.455C79.268 149.972 80.715 149.184 81.2808 147.677C81.8465 146.17 81.2636 144.575 79.9136 144.068ZM78.2476 148.467C77.5922 148.222 77.5236 147.448 77.9073 146.426C78.3058 145.364 78.8811 144.787 79.5364 145.033C80.1918 145.279 80.2637 146.084 79.8603 147.159C79.4766 148.181 78.916 148.718 78.2476 148.467Z"
  fill="white"
 />
 <path
  d="M174.924 181.884H177.54V189H179.304V181.884H181.86V180.324H174.924V181.884ZM186.525 189.12C188.973 189.12 190.509 187.428 190.509 184.68C190.509 181.908 188.949 180.204 186.525 180.204C184.101 180.204 182.529 181.908 182.529 184.692C182.529 187.44 184.065 189.12 186.525 189.12ZM186.537 187.68C185.265 187.68 184.437 186.816 184.437 184.704C184.437 182.544 185.265 181.644 186.525 181.644C187.785 181.644 188.601 182.544 188.601 184.704C188.601 186.828 187.797 187.68 186.537 187.68ZM191.307 181.884H193.923V189H195.687V181.884H198.243V180.324H191.307V181.884ZM197.708 189H199.472L200.192 186.984H203.312L204.02 189H205.76L202.664 180.324H200.816L197.708 189ZM200.576 185.46L201.74 182.016L202.892 185.46H200.576ZM206.689 180.324V189H212.221V187.524H208.453V180.324H206.689ZM148.598 197.988H150.278C150.338 196.932 151.034 196.56 151.862 196.56C152.762 196.56 153.41 196.98 153.41 197.604C153.41 198.276 152.786 198.756 151.85 198.792L151.106 198.828V200.22L151.934 200.256C152.906 200.28 153.602 200.736 153.602 201.48C153.602 202.212 152.954 202.716 151.874 202.716C151.046 202.716 150.398 202.308 150.23 201.312H148.55C148.574 203.064 149.774 204.108 151.862 204.12C153.842 204.132 155.462 203.244 155.462 201.54C155.462 200.364 154.646 199.704 153.686 199.44C154.802 199.056 155.27 198.384 155.27 197.532C155.27 195.948 153.842 195.204 151.898 195.204C150.05 195.204 148.598 196.128 148.598 197.988ZM159.681 195.192C157.605 195.192 156.333 196.8 156.333 199.692C156.333 202.56 157.569 204.108 159.669 204.108C161.769 204.108 163.005 202.548 163.005 199.68C163.005 196.8 161.745 195.192 159.681 195.192ZM159.669 202.692C158.637 202.692 158.157 201.84 158.157 199.692C158.157 197.484 158.649 196.584 159.669 196.584C160.689 196.584 161.169 197.472 161.169 199.692C161.169 201.852 160.713 202.692 159.669 202.692ZM164.023 205.68H164.671L165.883 203.784V202.296H164.107V203.988L164.719 204.048L164.023 205.68ZM170.591 195.192C168.515 195.192 167.243 196.8 167.243 199.692C167.243 202.56 168.479 204.108 170.579 204.108C172.679 204.108 173.915 202.548 173.915 199.68C173.915 196.8 172.655 195.192 170.591 195.192ZM170.579 202.692C169.547 202.692 169.067 201.84 169.067 199.692C169.067 197.484 169.559 196.584 170.579 196.584C171.599 196.584 172.079 197.472 172.079 199.692C172.079 201.852 171.623 202.692 170.579 202.692ZM178.138 195.192C176.062 195.192 174.79 196.8 174.79 199.692C174.79 202.56 176.026 204.108 178.126 204.108C180.226 204.108 181.462 202.548 181.462 199.68C181.462 196.8 180.202 195.192 178.138 195.192ZM178.126 202.692C177.094 202.692 176.614 201.84 176.614 199.692C176.614 197.484 177.106 196.584 178.126 196.584C179.146 196.584 179.626 197.472 179.626 199.692C179.626 201.852 179.17 202.692 178.126 202.692ZM185.685 195.192C183.609 195.192 182.337 196.8 182.337 199.692C182.337 202.56 183.573 204.108 185.673 204.108C187.773 204.108 189.009 202.548 189.009 199.68C189.009 196.8 187.749 195.192 185.685 195.192ZM185.673 202.692C184.641 202.692 184.161 201.84 184.161 199.692C184.161 197.484 184.653 196.584 185.673 196.584C186.693 196.584 187.173 197.472 187.173 199.692C187.173 201.852 186.717 202.692 185.673 202.692ZM190.027 205.68H190.675L191.887 203.784V202.296H190.111V203.988L190.723 204.048L190.027 205.68ZM196.595 195.192C194.519 195.192 193.247 196.8 193.247 199.692C193.247 202.56 194.483 204.108 196.583 204.108C198.683 204.108 199.919 202.548 199.919 199.68C199.919 196.8 198.659 195.192 196.595 195.192ZM196.583 202.692C195.551 202.692 195.071 201.84 195.071 199.692C195.071 197.484 195.563 196.584 196.583 196.584C197.603 196.584 198.083 197.472 198.083 199.692C198.083 201.852 197.627 202.692 196.583 202.692ZM204.142 195.192C202.066 195.192 200.794 196.8 200.794 199.692C200.794 202.56 202.03 204.108 204.13 204.108C206.23 204.108 207.466 202.548 207.466 199.68C207.466 196.8 206.206 195.192 204.142 195.192ZM204.13 202.692C203.098 202.692 202.618 201.84 202.618 199.692C202.618 197.484 203.11 196.584 204.13 196.584C205.15 196.584 205.63 197.472 205.63 199.692C205.63 201.852 205.174 202.692 204.13 202.692ZM211.689 195.192C209.613 195.192 208.341 196.8 208.341 199.692C208.341 202.56 209.577 204.108 211.677 204.108C213.777 204.108 215.013 202.548 215.013 199.68C215.013 196.8 213.753 195.192 211.689 195.192ZM211.677 202.692C210.645 202.692 210.165 201.84 210.165 199.692C210.165 197.484 210.657 196.584 211.677 196.584C212.697 196.584 213.177 197.472 213.177 199.692C213.177 201.852 212.721 202.692 211.677 202.692ZM219.122 204H220.886V200.904H222.542C224.414 200.904 225.638 199.896 225.638 198.168C225.638 196.332 224.21 195.324 222.314 195.324H219.122V204ZM220.874 199.548V196.668H222.47C223.322 196.668 223.994 197.208 223.994 198.072C223.994 198.912 223.37 199.548 222.494 199.548H220.874ZM226.986 195.324V204H228.75V200.4H232.338V198.972H228.75V196.788H232.878L232.89 195.324H226.986ZM241.604 204L238.568 199.368L241.244 195.324H239.372L237.644 198.12L235.928 195.324H233.744L236.54 199.596L233.66 204H235.556L237.476 200.88L239.42 204H241.604Z"
  fill="#001937"
  fill-opacity="0.5"
 />
</svg>
