<svg width="386" height="386" viewBox="0 0 386 386" fill="none" xmlns="http://www.w3.org/2000/svg">
    <mask id="mask0" mask-type="alpha" maskUnits="userSpaceOnUse" x="0" y="0" width="386" height="386">
        <path fill-rule="evenodd" clip-rule="evenodd" d="M193 386C299.591 386 386 299.591 386 193C386 86.409 299.591 0 193 0C86.409 0 0 86.409 0 193C0 299.591 86.409 386 193 386ZM193 273C237.183 273 273 237.183 273 193C273 148.817 237.183 113 193 113C148.817 113 113 148.817 113 193C113 237.183 148.817 273 193 273Z" fill="#30386C" />
    </mask>
    <g mask="url(#mask0)">
        <rect x="-45" y="-31" width="483" height="473" fill="#001937" />
        <path d="M-37 232L193 189.635L-31.488 122L-37 232Z" fill="#9BCEF3" />
        <path d="M37.9905 320.51L223.614 178.247L-7.0901 220.021L37.9905 320.51Z" fill="#0130A6" />
        <path d="M-28 122.5L193.5 193.5L2 86L-28 122.5Z" fill="#086AD9" />
        <path d="M415.5 316.5L193.5 193L12 307L6.5 311L19.5 362L173.5 437L415.5 316.5Z" fill="#66AEFF" />
        <path d="M-31.5 70.0001L193 193V-50L-31.5 70.0001Z" fill="#2DBCC4" />
    </g>
    <path d="M299.536 135.112L301.296 134.251C300.818 133.113 301.356 132.367 302.224 131.942C303.167 131.481 304.062 131.589 304.382 132.242C304.726 132.947 304.318 133.77 303.356 134.287L302.595 134.707L303.309 136.165L304.195 135.778C305.226 135.305 306.189 135.426 306.57 136.206C306.946 136.973 306.525 137.833 305.393 138.387C304.526 138.812 303.637 138.716 302.951 137.759L301.19 138.62C302.114 140.444 303.906 140.923 306.101 139.865C308.182 138.862 309.424 137.101 308.55 135.315C307.947 134.083 306.754 133.809 305.612 134.025C306.585 133.05 306.731 132.106 306.294 131.213C305.482 129.553 303.604 129.506 301.566 130.503C299.63 131.45 298.582 133.163 299.536 135.112ZM307.629 131.152L309.389 130.291C308.911 129.153 309.449 128.407 310.317 127.982C311.26 127.521 312.154 127.628 312.474 128.282C312.819 128.987 312.411 129.81 311.449 130.327L310.688 130.747L311.401 132.205L312.288 131.818C313.318 131.345 314.282 131.466 314.663 132.246C315.038 133.013 314.618 133.873 313.486 134.427C312.618 134.852 311.73 134.756 311.043 133.799L309.283 134.66C310.206 136.484 311.999 136.963 314.193 135.905C316.275 134.902 317.517 133.141 316.643 131.355C316.04 130.122 314.846 129.849 313.705 130.065C314.678 129.09 314.824 128.146 314.387 127.253C313.574 125.593 311.696 125.546 309.659 126.543C307.723 127.49 306.675 129.203 307.629 131.152ZM316.715 123.075C315.407 123.715 314.961 125.351 315.675 126.81C316.382 128.256 317.917 128.877 319.238 128.231C320.545 127.591 320.972 126.01 320.265 124.564C319.551 123.105 317.997 122.447 316.715 123.075ZM323.574 119.765L322.518 120.282L320.898 132.515L321.985 131.998L323.574 119.765ZM318.77 127.306C318.116 127.626 317.525 127.151 317.033 126.145C316.528 125.114 316.516 124.325 317.158 124.011C317.786 123.704 318.396 124.185 318.907 125.229C319.405 126.247 319.424 126.986 318.77 127.306ZM324.725 124.346C323.429 124.979 322.989 126.629 323.697 128.075C324.405 129.521 325.933 130.16 327.254 129.514C328.574 128.868 328.995 127.275 328.287 125.829C327.579 124.383 326.02 123.712 324.725 124.346ZM326.779 128.577C326.151 128.885 325.541 128.404 325.061 127.423C324.563 126.404 324.539 125.59 325.167 125.282C325.796 124.975 326.43 125.475 326.935 126.506C327.415 127.487 327.421 128.263 326.779 128.577Z" fill="white" />
    <path d="M107.815 81.0208L109.183 82.5769L116.785 75.8936L115.889 74.8737C115.172 75.3732 114.33 75.2 113.184 73.8963L112.322 74.6543L113.514 76.0106L107.815 81.0208ZM118.06 77.3433L116.798 78.4525L120.375 82.5216C116.389 82.8009 112.991 84.4275 111.669 85.4039L113.12 87.0547C114.91 85.5925 119.234 84.2337 121.78 84.1197L123.042 83.0105L118.06 77.3433ZM125.521 85.5969C124.56 84.5034 122.863 84.5034 121.644 85.5757C120.434 86.6387 120.239 88.2828 121.21 89.3868C122.171 90.4803 123.808 90.4765 125.018 89.4134C126.237 88.3412 126.464 86.6693 125.521 85.5969ZM130.518 91.3444L129.742 90.4612L117.513 92.1152L118.298 93.0286L130.518 91.3444ZM121.979 88.6923C121.498 88.1455 121.801 87.4508 122.642 86.7112C123.504 85.9533 124.262 85.7342 124.734 86.2704C125.196 86.7961 124.892 87.5106 124.019 88.2779C123.168 89.0266 122.46 89.239 121.979 88.6923ZM126.401 93.6589C125.449 92.5759 123.742 92.5852 122.533 93.6482C121.324 94.7113 121.109 96.3541 122.08 97.4581C123.05 98.5621 124.698 98.549 125.907 97.4859C127.116 96.4229 127.353 94.7418 126.401 93.6589ZM122.859 96.7543C122.397 96.2286 122.701 95.514 123.521 94.793C124.373 94.0443 125.152 93.8067 125.614 94.3324C126.076 94.8581 125.761 95.6016 124.898 96.3596C124.078 97.0807 123.331 97.2905 122.859 96.7543Z" fill="white" />
    <path d="M193.986 336.482L193.986 334.522C192.754 334.452 192.32 333.64 192.32 332.674C192.32 331.624 192.81 330.868 193.538 330.868C194.322 330.868 194.882 331.596 194.924 332.688L194.966 333.556L196.59 333.556L196.632 332.59C196.66 331.456 197.192 330.644 198.06 330.644C198.914 330.644 199.502 331.4 199.502 332.66C199.502 333.626 199.026 334.382 197.864 334.578L197.864 336.538C199.908 336.51 201.126 335.11 201.14 332.674C201.154 330.364 200.118 328.474 198.13 328.474C196.758 328.474 195.988 329.426 195.68 330.546C195.232 329.244 194.448 328.698 193.454 328.698C191.606 328.698 190.738 330.364 190.738 332.632C190.738 334.788 191.816 336.482 193.986 336.482ZM193.986 327.472L193.986 325.512C192.754 325.442 192.32 324.63 192.32 323.664C192.32 322.614 192.81 321.858 193.538 321.858C194.322 321.858 194.882 322.586 194.924 323.678L194.966 324.546L196.59 324.546L196.632 323.58C196.66 322.446 197.192 321.634 198.06 321.634C198.914 321.634 199.502 322.39 199.502 323.65C199.502 324.616 199.026 325.372 197.864 325.568L197.864 327.528C199.908 327.5 201.126 326.1 201.14 323.664C201.154 321.354 200.118 319.464 198.13 319.464C196.758 319.464 195.988 320.416 195.68 321.536C195.232 320.234 194.448 319.688 193.454 319.688C191.606 319.688 190.738 321.354 190.738 323.622C190.738 325.778 191.816 327.472 193.986 327.472ZM190.724 315.76C190.724 317.216 191.998 318.336 193.622 318.336C195.232 318.336 196.464 317.23 196.464 315.76C196.464 314.304 195.232 313.226 193.622 313.226C191.998 313.226 190.724 314.332 190.724 315.76ZM190.766 308.144L190.766 309.32L201.042 316.152L201.056 314.948L190.766 308.144ZM195.428 315.774C195.428 316.502 194.742 316.824 193.622 316.824C192.474 316.824 191.76 316.488 191.76 315.774C191.76 315.074 192.46 314.738 193.622 314.738C194.756 314.738 195.428 315.046 195.428 315.774ZM195.386 309.124C195.386 310.566 196.674 311.686 198.284 311.686C199.894 311.686 201.14 310.594 201.14 309.124C201.14 307.654 199.894 306.576 198.284 306.576C196.674 306.576 195.386 307.682 195.386 309.124ZM200.09 309.138C200.09 309.838 199.39 310.174 198.298 310.174C197.164 310.174 196.422 309.838 196.422 309.138C196.422 308.438 197.15 308.088 198.298 308.088C199.39 308.088 200.09 308.424 200.09 309.138Z" fill="white" />
    <path d="M50.8663 234.923L57.5669 231.422L58.3416 232.905C58.2462 233.408 58.1801 233.976 58.1434 234.612C58.1068 235.247 58.0998 235.909 58.1225 236.597C58.1452 237.285 58.198 237.966 58.281 238.639C58.3681 239.309 58.4826 239.937 58.6245 240.521C58.7664 241.105 58.9381 241.605 59.1396 242.021L57.1853 243.042C57.0282 242.66 56.8711 242.158 56.7138 241.535C56.5545 240.907 56.4248 240.19 56.3249 239.384C56.2269 238.572 56.1801 237.701 56.1844 236.773C56.1928 235.841 56.2811 234.882 56.4493 233.894L51.641 236.406L50.8663 234.923ZM60.8766 229.519C61.3026 229.296 61.7446 229.21 62.2026 229.261C62.6606 229.311 63.0905 229.479 63.4922 229.764C63.8938 230.049 64.22 230.431 64.4707 230.911C64.7192 231.387 64.8436 231.867 64.8439 232.351C64.8483 232.833 64.7393 233.274 64.5168 233.675C64.2922 234.071 63.9648 234.382 63.5346 234.607C63.1045 234.831 62.6605 234.924 62.2026 234.884C61.7426 234.84 61.314 234.679 60.9166 234.403C60.5193 234.126 60.1963 233.75 59.9478 233.274C59.6971 232.794 59.5695 232.308 59.5649 231.816C59.5644 231.321 59.6764 230.87 59.9009 230.463C60.1253 230.056 60.4505 229.742 60.8766 229.519ZM67.2988 226.211L66.0333 238.482L64.9565 239.021L66.2502 226.759L67.2988 226.211ZM63.0425 233.695C63.3651 233.526 63.5274 233.262 63.5293 232.903C63.5291 232.54 63.3983 232.108 63.1368 231.608C62.8667 231.091 62.5784 230.725 62.2719 230.512C61.9654 230.298 61.655 230.273 61.3407 230.438C61.0263 230.602 60.8704 230.873 60.873 231.251C60.8797 231.626 61.0159 232.068 61.2817 232.577C61.541 233.073 61.8197 233.425 62.1177 233.633C62.4157 233.841 62.724 233.861 63.0425 233.695ZM68.9232 230.575C69.3493 230.352 69.7924 230.268 70.2525 230.323C70.7147 230.371 71.1466 230.537 71.5483 230.822C71.95 231.107 72.2751 231.488 72.5236 231.963C72.7721 232.439 72.8976 232.921 72.9 233.41C72.9044 233.892 72.7954 234.333 72.5729 234.734C72.3505 235.134 72.0221 235.448 71.5878 235.675C71.1535 235.902 70.7063 235.993 70.2464 235.949C69.7864 235.905 69.3577 235.745 68.9603 235.468C68.5608 235.187 68.2368 234.809 67.9883 234.333C67.7398 233.857 67.6132 233.373 67.6086 232.881C67.6081 232.386 67.7201 231.935 67.9446 231.528C68.171 231.115 68.4972 230.797 68.9232 230.575ZM71.0859 234.744C71.4003 234.58 71.5605 234.317 71.5666 233.956C71.5705 233.591 71.4449 233.164 71.1899 232.676C70.922 232.163 70.6327 231.801 70.3221 231.589C70.0093 231.374 69.6999 231.346 69.3938 231.506C69.0836 231.668 68.9309 231.94 68.9356 232.322C68.9423 232.697 69.0774 233.137 69.3411 233.642C69.5961 234.13 69.8726 234.478 70.1706 234.686C70.4665 234.889 70.7716 234.909 71.0859 234.744Z" fill="white" />
    <path d="M40.7512 172.989L48.3009 172.595L48.3881 174.266C48.0921 174.683 47.7952 175.173 47.4974 175.735C47.1997 176.298 46.9178 176.896 46.6519 177.532C46.386 178.167 46.1507 178.808 45.9461 179.454C45.7462 180.1 45.5892 180.718 45.4751 181.308C45.3611 181.898 45.3091 182.424 45.3192 182.887L43.1172 183.002C43.133 182.589 43.1993 182.067 43.3158 181.435C43.4321 180.798 43.6126 180.092 43.8572 179.318C44.1063 178.539 44.4261 177.727 44.8167 176.885C45.212 176.042 45.6917 175.206 46.256 174.377L40.8384 174.66L40.7512 172.989ZM52.1024 172.243C52.5824 172.218 53.0201 172.323 53.4157 172.56C53.8112 172.796 54.1322 173.127 54.3788 173.554C54.6253 173.98 54.7627 174.464 54.7909 175.004C54.8189 175.54 54.7322 176.028 54.5309 176.469C54.3342 176.909 54.0514 177.265 53.6824 177.536C53.3131 177.803 52.8862 177.95 52.4015 177.975C51.9168 178 51.4746 177.899 51.0749 177.673C50.675 177.441 50.352 177.117 50.1059 176.7C49.8598 176.283 49.7228 175.806 49.6949 175.27C49.6667 174.73 49.753 174.234 49.9538 173.785C50.1593 173.335 50.4488 172.971 50.8222 172.695C51.1956 172.418 51.6223 172.268 52.1024 172.243ZM59.3187 171.908L53.0602 182.539L51.8568 182.58L58.1373 171.97L59.3187 171.908ZM52.3335 176.941C52.697 176.922 52.9544 176.75 53.1056 176.424C53.2566 176.094 53.3174 175.647 53.288 175.083C53.2576 174.5 53.1475 174.048 52.9578 173.726C52.7681 173.404 52.4962 173.252 52.142 173.271C51.7878 173.289 51.5333 173.471 51.3783 173.816C51.2281 174.16 51.1679 174.619 51.1978 175.192C51.227 175.751 51.3339 176.187 51.5184 176.5C51.703 176.813 51.9747 176.96 52.3335 176.941ZM58.9793 176.552C59.4593 176.527 59.8972 176.635 60.293 176.876C60.6931 177.112 61.0165 177.443 61.2631 177.87C61.5096 178.296 61.6469 178.777 61.6748 179.313C61.7028 179.849 61.6163 180.34 61.4152 180.785C61.2185 181.225 60.9357 181.581 60.5667 181.853C60.1977 182.124 59.7685 182.273 59.2791 182.298C58.7898 182.324 58.3452 182.221 57.9452 181.989C57.5453 181.758 57.2223 181.434 56.9762 181.017C56.7299 180.595 56.5928 180.116 56.5648 179.58C56.5368 179.044 56.6233 178.551 56.8241 178.102C57.0296 177.652 57.3191 177.288 57.6925 177.012C58.0703 176.73 58.4993 176.577 58.9793 176.552ZM59.2101 181.243C59.5643 181.225 59.8193 181.053 59.9752 180.727C60.1309 180.396 60.1943 179.956 60.1656 179.406C60.1355 178.828 60.0232 178.379 59.8289 178.057C59.6343 177.731 59.3645 177.576 59.0197 177.594C58.6701 177.613 58.418 177.796 58.2634 178.146C58.1131 178.49 58.0528 178.946 58.0825 179.515C58.1112 180.065 58.2178 180.496 58.4023 180.809C58.5866 181.117 58.8559 181.262 59.2101 181.243Z" fill="white" />
    <path d="M52.0038 132.723L53.8388 133.411C54.3373 132.282 55.25 132.161 56.1544 132.501C57.1374 132.87 57.673 133.594 57.4172 134.276C57.1417 135.01 56.2634 135.278 55.2263 134.934L54.3988 134.668L53.8282 136.189L54.7178 136.567C55.7697 136.992 56.343 137.775 56.038 138.588C55.7379 139.388 54.8235 139.673 53.6438 139.23C52.7394 138.89 52.1989 138.179 52.4237 137.022L50.5887 136.334C49.8967 138.257 50.7794 139.889 53.0551 140.758C55.2129 141.583 57.3464 141.277 58.045 139.416C58.5271 138.132 57.9064 137.076 56.966 136.394C58.3424 136.432 59.1291 135.89 59.4784 134.96C60.1277 133.23 58.873 131.831 56.7496 131.034C54.7311 130.277 52.7663 130.691 52.0038 132.723ZM64.1149 133.784C62.7518 133.272 61.2555 134.071 60.6849 135.592C60.1191 137.099 60.7217 138.641 62.098 139.158C63.4611 139.669 64.9033 138.895 65.469 137.388C66.0397 135.867 65.4519 134.286 64.1149 133.784ZM71.2305 136.499L70.1295 136.086L60.1223 143.306L61.2446 143.742L71.2305 136.499ZM62.4489 138.183C61.7673 137.927 61.7069 137.172 62.1005 136.123C62.5039 135.048 63.0693 134.498 63.7378 134.749C64.3931 134.995 64.4617 135.768 64.0534 136.856C63.655 137.918 63.1305 138.439 62.4489 138.183ZM68.6896 140.48C67.3395 139.974 65.8384 140.786 65.2726 142.293C64.7069 143.801 65.2914 145.351 66.6677 145.868C68.0439 146.384 69.491 145.596 70.0568 144.089C70.6225 142.582 70.0396 140.987 68.6896 140.48ZM67.0235 144.88C66.3682 144.634 66.2996 143.86 66.6833 142.838C67.0818 141.776 67.6571 141.199 68.3124 141.445C68.9678 141.691 69.0397 142.496 68.6363 143.571C68.2526 144.593 67.692 145.13 67.0235 144.88Z" fill="white" />
    <path d="M174.673 180.884V179.324H181.615V180.884H179.053V188H177.295V180.884H174.673ZM186.383 188.12C185.563 188.12 184.853 187.942 184.253 187.586C183.657 187.23 183.195 186.72 182.867 186.056C182.543 185.392 182.381 184.6 182.381 183.68C182.381 182.756 182.545 181.96 182.873 181.292C183.205 180.62 183.671 180.104 184.271 179.744C184.871 179.384 185.575 179.204 186.383 179.204C187.187 179.204 187.887 179.384 188.483 179.744C189.079 180.104 189.539 180.62 189.863 181.292C190.191 181.96 190.355 182.756 190.355 183.68C190.355 184.596 190.193 185.386 189.869 186.05C189.549 186.714 189.091 187.226 188.495 187.586C187.899 187.942 187.195 188.12 186.383 188.12ZM186.383 186.68C187.015 186.68 187.517 186.45 187.889 185.99C188.265 185.526 188.453 184.764 188.453 183.704C188.453 182.62 188.265 181.84 187.889 181.364C187.513 180.884 187.011 180.644 186.383 180.644C185.751 180.644 185.245 180.884 184.865 181.364C184.489 181.844 184.301 182.624 184.301 183.704C184.301 184.764 184.489 185.526 184.865 185.99C185.245 186.45 185.751 186.68 186.383 186.68ZM191.22 180.884V179.324H198.162V180.884H195.6V188H193.842V180.884H191.22ZM197.697 188L200.805 179.324H202.653L205.755 188H204.009L203.301 185.99H200.181L199.455 188H197.697ZM200.571 184.46H202.881L201.735 181.016L200.571 184.46ZM207.058 179.324H208.822V186.518H212.59V188H207.058V179.324ZM161.281 195.994C161.281 195.37 161.427 194.852 161.719 194.44C162.015 194.028 162.411 193.72 162.907 193.516C163.407 193.308 163.965 193.204 164.581 193.204C165.229 193.204 165.805 193.288 166.309 193.456C166.817 193.624 167.217 193.88 167.509 194.224C167.801 194.568 167.947 195.004 167.947 195.532C167.947 195.96 167.821 196.338 167.569 196.666C167.321 196.994 166.919 197.252 166.363 197.44C166.683 197.528 166.979 197.662 167.251 197.842C167.523 198.022 167.741 198.252 167.905 198.532C168.069 198.812 168.151 199.148 168.151 199.54C168.151 200.108 167.987 200.586 167.659 200.974C167.335 201.358 166.899 201.648 166.351 201.844C165.807 202.04 165.203 202.136 164.539 202.132C163.495 202.128 162.685 201.876 162.109 201.376C161.533 200.876 161.239 200.19 161.227 199.318H162.913C162.997 199.814 163.187 200.172 163.483 200.392C163.783 200.608 164.141 200.716 164.557 200.716C165.097 200.716 165.519 200.602 165.823 200.374C166.131 200.142 166.285 199.846 166.285 199.486C166.285 199.114 166.127 198.82 165.811 198.604C165.499 198.384 165.101 198.268 164.617 198.256L163.789 198.226V196.834L164.533 196.792C165.001 196.772 165.377 196.654 165.661 196.438C165.945 196.218 166.087 195.942 166.087 195.61C166.087 195.294 165.941 195.04 165.649 194.848C165.361 194.656 164.993 194.56 164.545 194.56C164.133 194.56 163.773 194.668 163.465 194.884C163.157 195.096 162.987 195.466 162.955 195.994H161.281ZM172.521 193.204C173.553 193.204 174.367 193.59 174.963 194.362C175.559 195.134 175.857 196.24 175.857 197.68C175.857 199.116 175.561 200.218 174.969 200.986C174.381 201.75 173.565 202.132 172.521 202.132C171.469 202.132 170.647 201.75 170.055 200.986C169.467 200.222 169.173 199.122 169.173 197.686C169.173 196.242 169.471 195.134 170.067 194.362C170.667 193.59 171.485 193.204 172.521 193.204ZM172.521 200.698C173.041 200.698 173.419 200.468 173.655 200.008C173.895 199.548 174.015 198.774 174.015 197.686C174.015 196.578 173.893 195.784 173.649 195.304C173.405 194.824 173.027 194.584 172.515 194.584C172.003 194.584 171.621 194.826 171.369 195.31C171.121 195.794 170.997 196.586 170.997 197.686C170.997 198.766 171.121 199.538 171.369 200.002C171.617 200.466 172.001 200.698 172.521 200.698ZM176.943 203.68L177.639 202.048L177.027 201.994V200.296H178.797V201.79L177.591 203.68H176.943ZM183.583 193.204C184.615 193.204 185.429 193.59 186.025 194.362C186.621 195.134 186.919 196.24 186.919 197.68C186.919 199.116 186.623 200.218 186.031 200.986C185.443 201.75 184.627 202.132 183.583 202.132C182.531 202.132 181.709 201.75 181.117 200.986C180.529 200.222 180.235 199.122 180.235 197.686C180.235 196.242 180.533 195.134 181.129 194.362C181.729 193.59 182.547 193.204 183.583 193.204ZM183.583 200.698C184.103 200.698 184.481 200.468 184.717 200.008C184.957 199.548 185.077 198.774 185.077 197.686C185.077 196.578 184.955 195.784 184.711 195.304C184.467 194.824 184.089 194.584 183.577 194.584C183.065 194.584 182.683 194.826 182.431 195.31C182.183 195.794 182.059 196.586 182.059 197.686C182.059 198.766 182.183 199.538 182.431 200.002C182.679 200.466 183.063 200.698 183.583 200.698ZM191.282 193.204C192.314 193.204 193.128 193.59 193.724 194.362C194.32 195.134 194.618 196.24 194.618 197.68C194.618 199.116 194.322 200.218 193.73 200.986C193.142 201.75 192.326 202.132 191.282 202.132C190.23 202.132 189.408 201.75 188.816 200.986C188.228 200.222 187.934 199.122 187.934 197.686C187.934 196.242 188.232 195.134 188.828 194.362C189.428 193.59 190.246 193.204 191.282 193.204ZM191.282 200.698C191.802 200.698 192.18 200.468 192.416 200.008C192.656 199.548 192.776 198.774 192.776 197.686C192.776 196.578 192.654 195.784 192.41 195.304C192.166 194.824 191.788 194.584 191.276 194.584C190.764 194.584 190.382 194.826 190.13 195.31C189.882 195.794 189.758 196.586 189.758 197.686C189.758 198.766 189.882 199.538 190.13 200.002C190.378 200.466 190.762 200.698 191.282 200.698ZM198.981 193.204C200.013 193.204 200.827 193.59 201.423 194.362C202.019 195.134 202.317 196.24 202.317 197.68C202.317 199.116 202.021 200.218 201.429 200.986C200.841 201.75 200.025 202.132 198.981 202.132C197.929 202.132 197.107 201.75 196.515 200.986C195.927 200.222 195.633 199.122 195.633 197.686C195.633 196.242 195.931 195.134 196.527 194.362C197.127 193.59 197.945 193.204 198.981 193.204ZM198.981 200.698C199.501 200.698 199.879 200.468 200.115 200.008C200.355 199.548 200.475 198.774 200.475 197.686C200.475 196.578 200.353 195.784 200.109 195.304C199.865 194.824 199.487 194.584 198.975 194.584C198.463 194.584 198.081 194.826 197.829 195.31C197.581 195.794 197.457 196.586 197.457 197.686C197.457 198.766 197.581 199.538 197.829 200.002C198.077 200.466 198.461 200.698 198.981 200.698ZM203.404 203.68L204.1 202.048L203.488 201.994V200.296H205.258V201.79L204.052 203.68H203.404ZM210.044 193.204C211.076 193.204 211.89 193.59 212.486 194.362C213.082 195.134 213.38 196.24 213.38 197.68C213.38 199.116 213.084 200.218 212.492 200.986C211.904 201.75 211.088 202.132 210.044 202.132C208.992 202.132 208.17 201.75 207.578 200.986C206.99 200.222 206.696 199.122 206.696 197.686C206.696 196.242 206.994 195.134 207.59 194.362C208.19 193.59 209.008 193.204 210.044 193.204ZM210.044 200.698C210.564 200.698 210.942 200.468 211.178 200.008C211.418 199.548 211.538 198.774 211.538 197.686C211.538 196.578 211.416 195.784 211.172 195.304C210.928 194.824 210.55 194.584 210.038 194.584C209.526 194.584 209.144 194.826 208.892 195.31C208.644 195.794 208.52 196.586 208.52 197.686C208.52 198.766 208.644 199.538 208.892 200.002C209.14 200.466 209.524 200.698 210.044 200.698ZM217.743 193.204C218.775 193.204 219.589 193.59 220.185 194.362C220.781 195.134 221.079 196.24 221.079 197.68C221.079 199.116 220.783 200.218 220.191 200.986C219.603 201.75 218.787 202.132 217.743 202.132C216.691 202.132 215.869 201.75 215.277 200.986C214.689 200.222 214.395 199.122 214.395 197.686C214.395 196.242 214.693 195.134 215.289 194.362C215.889 193.59 216.707 193.204 217.743 193.204ZM217.743 200.698C218.263 200.698 218.641 200.468 218.877 200.008C219.117 199.548 219.237 198.774 219.237 197.686C219.237 196.578 219.115 195.784 218.871 195.304C218.627 194.824 218.249 194.584 217.737 194.584C217.225 194.584 216.843 194.826 216.591 195.31C216.343 195.794 216.219 196.586 216.219 197.686C216.219 198.766 216.343 199.538 216.591 200.002C216.839 200.466 217.223 200.698 217.743 200.698ZM225.442 193.204C226.474 193.204 227.288 193.59 227.884 194.362C228.48 195.134 228.778 196.24 228.778 197.68C228.778 199.116 228.482 200.218 227.89 200.986C227.302 201.75 226.486 202.132 225.442 202.132C224.39 202.132 223.568 201.75 222.976 200.986C222.388 200.222 222.094 199.122 222.094 197.686C222.094 196.242 222.392 195.134 222.988 194.362C223.588 193.59 224.406 193.204 225.442 193.204ZM225.442 200.698C225.962 200.698 226.34 200.468 226.576 200.008C226.816 199.548 226.936 198.774 226.936 197.686C226.936 196.578 226.814 195.784 226.57 195.304C226.326 194.824 225.948 194.584 225.436 194.584C224.924 194.584 224.542 194.826 224.29 195.31C224.042 195.794 223.918 196.586 223.918 197.686C223.918 198.766 224.042 199.538 224.29 200.002C224.538 200.466 224.922 200.698 225.442 200.698ZM184.077 216V207.324H187.269C187.901 207.324 188.467 207.434 188.967 207.654C189.467 207.87 189.861 208.19 190.149 208.614C190.441 209.038 190.587 209.556 190.587 210.168C190.587 211.032 190.305 211.704 189.741 212.184C189.181 212.664 188.433 212.904 187.497 212.904H185.841V216H184.077ZM185.823 211.548H187.449C187.885 211.548 188.243 211.408 188.523 211.128C188.807 210.844 188.949 210.494 188.949 210.078C188.949 209.646 188.801 209.304 188.505 209.052C188.209 208.796 187.849 208.668 187.425 208.668H185.823V211.548ZM191.906 207.324H197.81L197.804 208.788H193.67V210.966H197.252V212.4H193.67V216H191.906V207.324ZM206.567 216H204.383L202.427 212.868L200.507 216H198.623L201.509 211.596L198.713 207.324H200.879L202.613 210.132L204.329 207.324H206.189L203.513 211.368L206.567 216Z" fill="#001937" fill-opacity="0.5" />
</svg>
