<svg width="47" height="41" viewBox="0 0 47 41" fill="none" xmlns="http://www.w3.org/2000/svg">
<path fill-rule="evenodd" clip-rule="evenodd" d="M4.54683 40.8697H12.7071H12.7072C14.1554 40.8697 14.8795 40.8697 15.5317 40.6749C16.2416 40.4629 16.8911 40.0846 17.4268 39.5714C17.9188 39.0998 18.2779 38.4691 18.9961 37.2075L29.6802 18.4425L29.6818 18.4395C30.3885 17.1981 30.7422 16.5768 30.8973 15.9216C31.0662 15.2079 31.066 14.4643 30.8965 13.7507C30.7405 13.0951 30.3861 12.4737 29.677 11.231L25.5563 4.00773C24.5814 2.29871 24.0939 1.4442 23.475 1.12678C22.806 0.783761 22.0134 0.784359 21.3451 1.12834C20.7265 1.44667 20.2402 2.30191 19.2679 4.01233L1.40122 35.4376C0.442684 37.1234 -0.0365709 37.9663 0.00217572 38.6576C0.0440731 39.4047 0.439039 40.0869 1.06521 40.4934C1.64458 40.8697 2.61198 40.8697 4.54677 40.8697H4.54683ZM32.3594 40.8699H41.8203C43.7756 40.8699 44.7531 40.8699 45.3343 40.49C45.9626 40.0794 46.3563 39.3917 46.3928 38.6402C46.4264 37.9452 45.9332 37.0984 44.9469 35.4048L44.9468 35.4048L40.2087 27.2703L40.2078 27.2688C39.2358 25.6002 38.7498 24.7658 38.1352 24.4536C37.4709 24.1164 36.6861 24.117 36.0223 24.4552C35.4082 24.7681 34.9231 25.6035 33.9532 27.2739L33.9527 27.2748L29.23 35.4095L29.2296 35.4101C28.2474 37.102 27.7561 37.9481 27.7908 38.6428C27.8277 39.3932 28.2217 40.0807 28.8495 40.4905C29.4307 40.8699 30.4069 40.8699 32.3594 40.8699Z" fill="#001937"/>
</svg>
