<svg width="12" height="12" viewBox="0 0 12 12" fill="none" xmlns="http://www.w3.org/2000/svg">
<path fill-rule="evenodd" clip-rule="evenodd" d="M1.74737e-06 10.9064C0.000442043 11.1052 0.0601012 11.2993 0.171364 11.464C0.282626 11.6287 0.440445 11.7565 0.624676 11.8312C0.808907 11.9058 1.01119 11.9238 1.20571 11.8829C1.40024 11.8421 1.57817 11.7442 1.7168 11.6017L9.90235 3.41618L9.90235 9.48649C9.90047 9.619 9.92495 9.75057 9.97437 9.87353C10.0238 9.9965 10.0971 10.1084 10.1902 10.2028C10.2832 10.2972 10.3941 10.3721 10.5164 10.4232C10.6386 10.4744 10.7698 10.5007 10.9023 10.5007C11.0349 10.5007 11.1661 10.4744 11.2883 10.4232C11.4106 10.3721 11.5215 10.2972 11.6145 10.2028C11.7075 10.1084 11.7809 9.9965 11.8303 9.87353C11.8797 9.75057 11.9042 9.619 11.9023 9.48649L11.9023 1.00016C11.9023 0.734952 11.797 0.480614 11.6094 0.293084C11.4219 0.105553 11.1676 0.000187386 10.9023 0.000160694L2.41797 0.000161065C2.28418 -0.00167094 2.15138 0.023363 2.02744 0.073779C1.9035 0.124195 1.79094 0.198968 1.69642 0.293672C1.6019 0.388375 1.52734 0.501083 1.47716 0.625121C1.42699 0.749159 1.40221 0.882004 1.4043 1.01579C1.40844 1.28066 1.5175 1.53308 1.70754 1.71763C1.89759 1.90218 2.15309 2.00379 2.41797 2.00016L8.49024 2.00016L0.302737 10.1877C0.206707 10.2811 0.130425 10.3928 0.07842 10.5163C0.0264154 10.6398 -0.000251795 10.7724 1.74737e-06 10.9064Z" fill="black"/>
</svg>
